<?xml version="1.0" encoding="UTF-8"?>
<!-- Generated by SVGo -->
<svg width="308.752mm" height="124.652mm" viewBox="0.000 0.000 308.752 124.652" xmlns="http://www.w3.org/2000/svg" xmlns:xlink="http://www.w3.org/1999/xlink">
<polygon points="24.376,14.701 11.501,14.701 11.501,109.952 297.252,109.952 297.252,14.701 36.376,14.701 36.376,5.000 298.752,5.001 299.144,5.016 299.534,5.062 299.919,5.139 300.297,5.245 300.665,5.381 301.021,5.545 301.364,5.737 301.690,5.955 301.999,6.198 302.287,6.465 302.554,6.753 302.797,7.062 303.015,7.388 303.207,7.731 303.371,8.087 303.507,8.455 303.613,8.833 303.690,9.218 303.736,9.608 303.751,10.001 303.752,114.652 303.736,115.044 303.690,115.434 303.613,115.819 303.507,116.197 303.371,116.565 303.207,116.921 303.015,117.264 302.797,117.590 302.554,117.899 302.287,118.187 301.999,118.454 301.690,118.697 301.364,118.915 301.021,119.107 300.665,119.271 300.297,119.407 299.919,119.513 299.534,119.590 299.144,119.636 298.752,119.652 10.001,119.652 9.608,119.636 9.218,119.590 8.833,119.513 8.455,119.407 8.087,119.271 7.731,119.107 7.388,118.915 7.062,118.697 6.753,118.454 6.465,118.187 6.198,117.899 5.955,117.590 5.737,117.264 5.545,116.921 5.381,116.565 5.245,116.197 5.139,115.819 5.062,115.434 5.016,115.044 5.000,114.651 5.001,10.001 5.016,9.608 5.062,9.218 5.139,8.833 5.245,8.455 5.381,8.087 5.545,7.731 5.737,7.388 5.955,7.062 6.198,6.753 6.465,6.465 6.753,6.198 7.062,5.955 7.388,5.737 7.731,5.545 8.087,5.381 8.455,5.245 8.833,5.139 9.218,5.062 9.608,5.016 10.001,5.000 24.376,5.000" style="fill:none;stroke-width:0.050000mm;stroke:black"/>
<script xmlns=""/></svg>