<?xml version="1.0" encoding="UTF-8"?>
<!-- Generated by SVGo -->
<svg width="308.752mm" height="124.652mm" viewBox="0.000 0.000 308.752 124.652" xmlns="http://www.w3.org/2000/svg" xmlns:xlink="http://www.w3.org/1999/xlink">
<polygon points="298.752,5.001 299.144,5.016 299.534,5.062 299.919,5.139 300.297,5.245 300.665,5.381 301.021,5.545 301.364,5.737 301.690,5.955 301.999,6.198 302.287,6.465 302.554,6.753 302.797,7.062 303.015,7.388 303.207,7.731 303.371,8.087 303.507,8.455 303.613,8.833 303.690,9.218 303.736,9.608 303.751,10.001 303.752,114.652 303.736,115.044 303.690,115.434 303.613,115.819 303.507,116.197 303.371,116.565 303.207,116.921 303.015,117.264 302.797,117.590 302.554,117.899 302.287,118.187 301.999,118.454 301.690,118.697 301.364,118.915 301.021,119.107 300.665,119.271 300.297,119.407 299.919,119.513 299.534,119.590 299.144,119.636 298.752,119.652 10.001,119.652 9.608,119.636 9.218,119.590 8.833,119.513 8.455,119.407 8.087,119.271 7.731,119.107 7.388,118.915 7.062,118.697 6.753,118.454 6.465,118.187 6.198,117.899 5.955,117.590 5.737,117.264 5.545,116.921 5.381,116.565 5.245,116.197 5.139,115.819 5.062,115.434 5.016,115.044 5.000,114.651 5.001,10.001 5.016,9.608 5.062,9.218 5.139,8.833 5.245,8.455 5.381,8.087 5.545,7.731 5.737,7.388 5.955,7.062 6.198,6.753 6.465,6.465 6.753,6.198 7.062,5.955 7.388,5.737 7.731,5.545 8.087,5.381 8.455,5.245 8.833,5.139 9.218,5.062 9.608,5.016 10.001,5.000" style="fill:none;stroke-width:0.050000mm;stroke:black"/>
<polygon points="168.807,93.426 168.807,94.426 168.007,94.426 168.007,97.526 168.807,97.526 168.807,98.126 167.282,98.126 167.282,94.896 165.557,94.896 165.557,93.976 162.257,93.976 162.257,94.896 160.532,94.896 160.532,98.126 159.707,98.126 159.707,100.926 160.532,100.926 160.532,107.196 162.257,107.196 162.257,108.176 165.557,108.176 165.557,107.196 167.282,107.196 167.282,102.726 168.807,102.726 168.807,103.326 168.007,103.326 168.007,106.426 168.807,106.426 168.807,107.426 182.807,107.426 182.807,106.426 183.607,106.426 183.607,103.326 182.807,103.326 182.807,102.726 184.332,102.726 184.332,107.196 186.057,107.196 186.057,108.176 189.357,108.176 189.357,107.196 191.082,107.196 191.082,100.926 191.907,100.926 191.907,98.126 191.082,98.126 191.082,94.896 189.357,94.896 189.357,93.976 186.057,93.976 186.057,94.896 184.332,94.896 184.332,98.126 182.807,98.126 182.807,97.526 183.607,97.526 183.607,94.426 182.807,94.426 182.807,93.426" style="fill:none;stroke-width:0.050000mm;stroke:black"/>
<polygon points="97.369,93.426 97.369,94.426 96.569,94.426 96.569,97.526 97.369,97.526 97.369,98.126 95.844,98.126 95.844,94.896 94.119,94.896 94.119,93.976 90.819,93.976 90.819,94.896 89.094,94.896 89.094,98.126 88.269,98.126 88.269,100.926 89.094,100.926 89.094,107.196 90.819,107.196 90.819,108.176 94.119,108.176 94.119,107.196 95.844,107.196 95.844,102.726 97.369,102.726 97.369,103.326 96.569,103.326 96.569,106.426 97.369,106.426 97.369,107.426 111.369,107.426 111.369,106.426 112.169,106.426 112.169,103.326 111.369,103.326 111.369,102.726 112.894,102.726 112.894,107.196 114.619,107.196 114.619,108.176 117.919,108.176 117.919,107.196 119.644,107.196 119.644,100.926 120.469,100.926 120.469,98.126 119.644,98.126 119.644,94.896 117.919,94.896 117.919,93.976 114.619,93.976 114.619,94.896 112.894,94.896 112.894,98.126 111.369,98.126 111.369,97.526 112.169,97.526 112.169,94.426 111.369,94.426 111.369,93.426" style="fill:none;stroke-width:0.050000mm;stroke:black"/>
<polygon points="280.726,93.426 280.726,94.426 279.926,94.426 279.926,97.526 280.726,97.526 280.726,103.326 279.926,103.326 279.926,106.426 280.726,106.426 280.726,107.426 294.726,107.426 294.726,106.426 295.526,106.426 295.526,103.326 294.726,103.326 294.726,97.526 295.526,97.526 295.526,94.426 294.726,94.426 294.726,93.426" style="fill:none;stroke-width:0.050000mm;stroke:black"/>
<polygon points="261.676,93.426 261.676,94.426 260.876,94.426 260.876,97.526 261.676,97.526 261.676,103.326 260.876,103.326 260.876,106.426 261.676,106.426 261.676,107.426 275.676,107.426 275.676,106.426 276.476,106.426 276.476,103.326 275.676,103.326 275.676,97.526 276.476,97.526 276.476,94.426 275.676,94.426 275.676,93.426" style="fill:none;stroke-width:0.050000mm;stroke:black"/>
<polygon points="242.626,93.426 242.626,94.426 241.826,94.426 241.826,97.526 242.626,97.526 242.626,103.326 241.826,103.326 241.826,106.426 242.626,106.426 242.626,107.426 256.626,107.426 256.626,106.426 257.426,106.426 257.426,103.326 256.626,103.326 256.626,97.526 257.426,97.526 257.426,94.426 256.626,94.426 256.626,93.426" style="fill:none;stroke-width:0.050000mm;stroke:black"/>
<polygon points="223.576,93.426 223.576,94.426 222.776,94.426 222.776,97.526 223.576,97.526 223.576,103.326 222.776,103.326 222.776,106.426 223.576,106.426 223.576,107.426 237.576,107.426 237.576,106.426 238.376,106.426 238.376,103.326 237.576,103.326 237.576,97.526 238.376,97.526 238.376,94.426 237.576,94.426 237.576,93.426" style="fill:none;stroke-width:0.050000mm;stroke:black"/>
<polygon points="204.526,93.426 204.526,94.426 203.726,94.426 203.726,97.526 204.526,97.526 204.526,103.326 203.726,103.326 203.726,106.426 204.526,106.426 204.526,107.426 218.526,107.426 218.526,106.426 219.326,106.426 219.326,103.326 218.526,103.326 218.526,97.526 219.326,97.526 219.326,94.426 218.526,94.426 218.526,93.426" style="fill:none;stroke-width:0.050000mm;stroke:black"/>
<polygon points="130.706,93.426 130.706,94.426 129.907,94.426 129.907,97.526 130.706,97.526 130.706,103.326 129.907,103.326 129.907,106.426 130.706,106.426 130.706,107.426 144.707,107.426 144.707,106.426 145.507,106.426 145.507,103.326 144.707,103.326 144.707,97.526 145.507,97.526 145.507,94.426 144.707,94.426 144.707,93.426" style="fill:none;stroke-width:0.050000mm;stroke:black"/>
<polygon points="64.032,93.426 64.032,94.426 63.232,94.426 63.232,97.526 64.032,97.526 64.032,103.326 63.232,103.326 63.232,106.426 64.032,106.426 64.032,107.426 78.032,107.426 78.032,106.426 78.832,106.426 78.832,103.326 78.032,103.326 78.032,97.526 78.832,97.526 78.832,94.426 78.032,94.426 78.032,93.426" style="fill:none;stroke-width:0.050000mm;stroke:black"/>
<polygon points="40.219,93.426 40.219,94.426 39.419,94.426 39.419,97.526 40.219,97.526 40.219,103.326 39.419,103.326 39.419,106.426 40.219,106.426 40.219,107.426 54.219,107.426 54.219,106.426 55.019,106.426 55.019,103.326 54.219,103.326 54.219,97.526 55.019,97.526 55.019,94.426 54.219,94.426 54.219,93.426" style="fill:none;stroke-width:0.050000mm;stroke:black"/>
<polygon points="16.407,93.426 16.407,94.426 15.607,94.426 15.607,97.526 16.407,97.526 16.407,103.326 15.607,103.326 15.607,106.426 16.407,106.426 16.407,107.426 30.407,107.426 30.407,106.426 31.207,106.426 31.207,103.326 30.407,103.326 30.407,97.526 31.207,97.526 31.207,94.426 30.407,94.426 30.407,93.426" style="fill:none;stroke-width:0.050000mm;stroke:black"/>
<polygon points="23.551,74.376 23.551,75.376 22.751,75.376 22.751,78.476 23.551,78.476 23.551,79.076 22.026,79.076 22.026,75.846 20.301,75.846 20.301,74.926 17.001,74.926 17.001,75.846 15.276,75.846 15.276,79.076 14.451,79.076 14.451,81.876 15.276,81.876 15.276,88.146 17.001,88.146 17.001,89.126 20.301,89.126 20.301,88.146 22.026,88.146 22.026,83.676 23.551,83.676 23.551,84.276 22.751,84.276 22.751,87.376 23.551,87.376 23.551,88.376 37.551,88.376 37.551,87.376 38.351,87.376 38.351,84.276 37.551,84.276 37.551,83.676 39.076,83.676 39.076,88.146 40.801,88.146 40.801,89.126 44.101,89.126 44.101,88.146 45.826,88.146 45.826,81.876 46.651,81.876 46.651,79.076 45.826,79.076 45.826,75.846 44.101,75.846 44.101,74.926 40.801,74.926 40.801,75.846 39.076,75.846 39.076,79.076 37.551,79.076 37.551,78.476 38.351,78.476 38.351,75.376 37.551,75.376 37.551,74.376" style="fill:none;stroke-width:0.050000mm;stroke:black"/>
<polygon points="280.726,74.376 280.726,75.376 279.926,75.376 279.926,78.476 280.726,78.476 280.726,84.276 279.926,84.276 279.926,87.376 280.726,87.376 280.726,88.376 294.726,88.376 294.726,87.376 295.526,87.376 295.526,84.276 294.726,84.276 294.726,78.476 295.526,78.476 295.526,75.376 294.726,75.376 294.726,74.376" style="fill:none;stroke-width:0.050000mm;stroke:black"/>
<polygon points="261.676,74.376 261.676,75.376 260.876,75.376 260.876,78.476 261.676,78.476 261.676,84.276 260.876,84.276 260.876,87.376 261.676,87.376 261.676,88.376 275.676,88.376 275.676,87.376 276.476,87.376 276.476,84.276 275.676,84.276 275.676,78.476 276.476,78.476 276.476,75.376 275.676,75.376 275.676,74.376" style="fill:none;stroke-width:0.050000mm;stroke:black"/>
<polygon points="242.626,74.376 242.626,75.376 241.826,75.376 241.826,78.476 242.626,78.476 242.626,84.276 241.826,84.276 241.826,87.376 242.626,87.376 242.626,88.376 256.626,88.376 256.626,87.376 257.426,87.376 257.426,84.276 256.626,84.276 256.626,78.476 257.426,78.476 257.426,75.376 256.626,75.376 256.626,74.376" style="fill:none;stroke-width:0.050000mm;stroke:black"/>
<polygon points="223.576,74.376 223.576,75.376 222.776,75.376 222.776,78.476 223.576,78.476 223.576,84.276 222.776,84.276 222.776,87.376 223.576,87.376 223.576,88.376 237.576,88.376 237.576,87.376 238.376,87.376 238.376,84.276 237.576,84.276 237.576,78.476 238.376,78.476 238.376,75.376 237.576,75.376 237.576,74.376" style="fill:none;stroke-width:0.050000mm;stroke:black"/>
<polygon points="204.526,74.376 204.526,75.376 203.726,75.376 203.726,78.476 204.526,78.476 204.526,84.276 203.726,84.276 203.726,87.376 204.526,87.376 204.526,88.376 218.526,88.376 218.526,87.376 219.326,87.376 219.326,84.276 218.526,84.276 218.526,78.476 219.326,78.476 219.326,75.376 218.526,75.376 218.526,74.376" style="fill:none;stroke-width:0.050000mm;stroke:black"/>
<polygon points="185.476,74.376 185.476,75.376 184.676,75.376 184.676,78.476 185.476,78.476 185.476,84.276 184.676,84.276 184.676,87.376 185.476,87.376 185.476,88.376 199.476,88.376 199.476,87.376 200.276,87.376 200.276,84.276 199.476,84.276 199.476,78.476 200.276,78.476 200.276,75.376 199.476,75.376 199.476,74.376" style="fill:none;stroke-width:0.050000mm;stroke:black"/>
<polygon points="166.426,74.376 166.426,75.376 165.626,75.376 165.626,78.476 166.426,78.476 166.426,84.276 165.626,84.276 165.626,87.376 166.426,87.376 166.426,88.376 180.426,88.376 180.426,87.376 181.226,87.376 181.226,84.276 180.426,84.276 180.426,78.476 181.226,78.476 181.226,75.376 180.426,75.376 180.426,74.376" style="fill:none;stroke-width:0.050000mm;stroke:black"/>
<polygon points="147.376,74.376 147.376,75.376 146.576,75.376 146.576,78.476 147.376,78.476 147.376,84.276 146.576,84.276 146.576,87.376 147.376,87.376 147.376,88.376 161.376,88.376 161.376,87.376 162.176,87.376 162.176,84.276 161.376,84.276 161.376,78.476 162.176,78.476 162.176,75.376 161.376,75.376 161.376,74.376" style="fill:none;stroke-width:0.050000mm;stroke:black"/>
<polygon points="128.325,74.376 128.325,75.376 127.525,75.376 127.525,78.476 128.325,78.476 128.325,84.276 127.525,84.276 127.525,87.376 128.325,87.376 128.325,88.376 142.326,88.376 142.326,87.376 143.126,87.376 143.126,84.276 142.326,84.276 142.326,78.476 143.126,78.476 143.126,75.376 142.326,75.376 142.326,74.376" style="fill:none;stroke-width:0.050000mm;stroke:black"/>
<polygon points="109.275,74.376 109.275,75.376 108.476,75.376 108.476,78.476 109.275,78.476 109.275,84.276 108.476,84.276 108.476,87.376 109.275,87.376 109.275,88.376 123.275,88.376 123.275,87.376 124.075,87.376 124.075,84.276 123.275,84.276 123.275,78.476 124.075,78.476 124.075,75.376 123.275,75.376 123.275,74.376" style="fill:none;stroke-width:0.050000mm;stroke:black"/>
<polygon points="90.226,74.376 90.226,75.376 89.426,75.376 89.426,78.476 90.226,78.476 90.226,84.276 89.426,84.276 89.426,87.376 90.226,87.376 90.226,88.376 104.226,88.376 104.226,87.376 105.025,87.376 105.025,84.276 104.226,84.276 104.226,78.476 105.025,78.476 105.025,75.376 104.226,75.376 104.226,74.376" style="fill:none;stroke-width:0.050000mm;stroke:black"/>
<polygon points="71.176,74.376 71.176,75.376 70.376,75.376 70.376,78.476 71.176,78.476 71.176,84.276 70.376,84.276 70.376,87.376 71.176,87.376 71.176,88.376 85.176,88.376 85.176,87.376 85.976,87.376 85.976,84.276 85.176,84.276 85.176,78.476 85.976,78.476 85.976,75.376 85.176,75.376 85.176,74.376" style="fill:none;stroke-width:0.050000mm;stroke:black"/>
<polygon points="52.126,74.376 52.126,75.376 51.326,75.376 51.326,78.476 52.126,78.476 52.126,84.276 51.326,84.276 51.326,87.376 52.126,87.376 52.126,88.376 66.126,88.376 66.126,87.376 66.926,87.376 66.926,84.276 66.126,84.276 66.126,78.476 66.926,78.476 66.926,75.376 66.126,75.376 66.126,74.376" style="fill:none;stroke-width:0.050000mm;stroke:black"/>
<polygon points="256.912,55.326 256.912,56.326 256.113,56.326 256.113,59.426 256.912,59.426 256.912,65.225 256.113,65.225 256.113,68.326 256.912,68.326 256.912,69.326 270.913,69.326 270.913,68.326 271.713,68.326 271.713,65.225 270.913,65.225 270.913,59.426 271.713,59.426 271.713,56.326 270.913,56.326 270.913,55.326" style="fill:none;stroke-width:0.050000mm;stroke:black"/>
<polygon points="237.863,55.326 237.863,56.326 237.063,56.326 237.063,59.426 237.863,59.426 237.863,65.225 237.063,65.225 237.063,68.326 237.863,68.326 237.863,69.326 251.863,69.326 251.863,68.326 252.663,68.326 252.663,65.225 251.863,65.225 251.863,59.426 252.663,59.426 252.663,56.326 251.863,56.326 251.863,55.326" style="fill:none;stroke-width:0.050000mm;stroke:black"/>
<polygon points="218.813,55.326 218.813,56.326 218.013,56.326 218.013,59.426 218.813,59.426 218.813,65.225 218.013,65.225 218.013,68.326 218.813,68.326 218.813,69.326 232.813,69.326 232.813,68.326 233.613,68.326 233.613,65.225 232.813,65.225 232.813,59.426 233.613,59.426 233.613,56.326 232.813,56.326 232.813,55.326" style="fill:none;stroke-width:0.050000mm;stroke:black"/>
<polygon points="199.763,55.326 199.763,56.326 198.963,56.326 198.963,59.426 199.763,59.426 199.763,65.225 198.963,65.225 198.963,68.326 199.763,68.326 199.763,69.326 213.763,69.326 213.763,68.326 214.563,68.326 214.563,65.225 213.763,65.225 213.763,59.426 214.563,59.426 214.563,56.326 213.763,56.326 213.763,55.326" style="fill:none;stroke-width:0.050000mm;stroke:black"/>
<polygon points="180.713,55.326 180.713,56.326 179.913,56.326 179.913,59.426 180.713,59.426 180.713,65.225 179.913,65.225 179.913,68.326 180.713,68.326 180.713,69.326 194.713,69.326 194.713,68.326 195.513,68.326 195.513,65.225 194.713,65.225 194.713,59.426 195.513,59.426 195.513,56.326 194.713,56.326 194.713,55.326" style="fill:none;stroke-width:0.050000mm;stroke:black"/>
<polygon points="161.663,55.326 161.663,56.326 160.863,56.326 160.863,59.426 161.663,59.426 161.663,65.225 160.863,65.225 160.863,68.326 161.663,68.326 161.663,69.326 175.663,69.326 175.663,68.326 176.463,68.326 176.463,65.225 175.663,65.225 175.663,59.426 176.463,59.426 176.463,56.326 175.663,56.326 175.663,55.326" style="fill:none;stroke-width:0.050000mm;stroke:black"/>
<polygon points="142.613,55.326 142.613,56.326 141.813,56.326 141.813,59.426 142.613,59.426 142.613,65.225 141.813,65.225 141.813,68.326 142.613,68.326 142.613,69.326 156.613,69.326 156.613,68.326 157.413,68.326 157.413,65.225 156.613,65.225 156.613,59.426 157.413,59.426 157.413,56.326 156.613,56.326 156.613,55.326" style="fill:none;stroke-width:0.050000mm;stroke:black"/>
<polygon points="123.563,55.326 123.563,56.326 122.763,56.326 122.763,59.426 123.563,59.426 123.563,65.225 122.763,65.225 122.763,68.326 123.563,68.326 123.563,69.326 137.563,69.326 137.563,68.326 138.363,68.326 138.363,65.225 137.563,65.225 137.563,59.426 138.363,59.426 138.363,56.326 137.563,56.326 137.563,55.326" style="fill:none;stroke-width:0.050000mm;stroke:black"/>
<polygon points="104.513,55.326 104.513,56.326 103.713,56.326 103.713,59.426 104.513,59.426 104.513,65.225 103.713,65.225 103.713,68.326 104.513,68.326 104.513,69.326 118.513,69.326 118.513,68.326 119.313,68.326 119.313,65.225 118.513,65.225 118.513,59.426 119.313,59.426 119.313,56.326 118.513,56.326 118.513,55.326" style="fill:none;stroke-width:0.050000mm;stroke:black"/>
<polygon points="85.463,55.326 85.463,56.326 84.663,56.326 84.663,59.426 85.463,59.426 85.463,65.225 84.663,65.225 84.663,68.326 85.463,68.326 85.463,69.326 99.463,69.326 99.463,68.326 100.263,68.326 100.263,65.225 99.463,65.225 99.463,59.426 100.263,59.426 100.263,56.326 99.463,56.326 99.463,55.326" style="fill:none;stroke-width:0.050000mm;stroke:black"/>
<polygon points="66.413,55.326 66.413,56.326 65.613,56.326 65.613,59.426 66.413,59.426 66.413,65.225 65.613,65.225 65.613,68.326 66.413,68.326 66.413,69.326 80.413,69.326 80.413,68.326 81.213,68.326 81.213,65.225 80.413,65.225 80.413,59.426 81.213,59.426 81.213,56.326 80.413,56.326 80.413,55.326" style="fill:none;stroke-width:0.050000mm;stroke:black"/>
<polygon points="47.363,55.326 47.363,56.326 46.563,56.326 46.563,59.426 47.363,59.426 47.363,65.225 46.563,65.225 46.563,68.326 47.363,68.326 47.363,69.326 61.363,69.326 61.363,68.326 62.163,68.326 62.163,65.225 61.363,65.225 61.363,59.426 62.163,59.426 62.163,56.326 61.363,56.326 61.363,55.326" style="fill:none;stroke-width:0.050000mm;stroke:black"/>
<polygon points="16.407,55.326 16.407,56.326 15.607,56.326 15.607,59.426 16.407,59.426 16.407,65.225 15.607,65.225 15.607,68.326 16.407,68.326 16.407,69.326 30.407,69.326 30.407,68.326 31.207,68.326 31.207,65.225 30.407,65.225 30.407,59.426 31.207,59.426 31.207,56.326 30.407,56.326 30.407,55.326" style="fill:none;stroke-width:0.050000mm;stroke:black"/>
<polygon points="284.844,36.701 284.844,37.526 278.574,37.526 278.574,39.251 277.594,39.251 277.594,42.551 278.574,42.551 278.574,44.276 283.044,44.276 283.044,45.801 282.444,45.801 282.444,45.001 279.344,45.001 279.344,45.801 278.344,45.801 278.344,59.801 279.344,59.801 279.344,60.601 282.444,60.601 282.444,59.801 283.044,59.801 283.044,61.326 278.574,61.326 278.574,63.051 277.594,63.051 277.594,66.351 278.574,66.351 278.574,68.076 284.844,68.076 284.844,68.901 287.644,68.901 287.644,68.076 290.874,68.076 290.874,66.351 291.794,66.351 291.794,63.051 290.874,63.051 290.874,61.326 287.644,61.326 287.644,59.801 288.244,59.801 288.244,60.601 291.344,60.601 291.344,59.801 292.344,59.801 292.344,45.801 291.344,45.801 291.344,45.001 288.244,45.001 288.244,45.801 287.644,45.801 287.644,44.276 290.874,44.276 290.874,42.551 291.794,42.551 291.794,39.251 290.874,39.251 290.874,37.526 287.644,37.526 287.644,36.701" style="fill:none;stroke-width:0.050000mm;stroke:black"/>
<polygon points="252.151,36.276 252.151,37.276 251.351,37.276 251.351,40.376 252.151,40.376 252.151,46.176 251.351,46.176 251.351,49.276 252.151,49.276 252.151,50.276 266.151,50.276 266.151,49.276 266.951,49.276 266.951,46.176 266.151,46.176 266.151,40.376 266.951,40.376 266.951,37.276 266.151,37.276 266.151,36.276" style="fill:none;stroke-width:0.050000mm;stroke:black"/>
<polygon points="233.101,36.276 233.101,37.276 232.301,37.276 232.301,40.376 233.101,40.376 233.101,46.176 232.301,46.176 232.301,49.276 233.101,49.276 233.101,50.276 247.101,50.276 247.101,49.276 247.901,49.276 247.901,46.176 247.101,46.176 247.101,40.376 247.901,40.376 247.901,37.276 247.101,37.276 247.101,36.276" style="fill:none;stroke-width:0.050000mm;stroke:black"/>
<polygon points="214.051,36.276 214.051,37.276 213.251,37.276 213.251,40.376 214.051,40.376 214.051,46.176 213.251,46.176 213.251,49.276 214.051,49.276 214.051,50.276 228.051,50.276 228.051,49.276 228.851,49.276 228.851,46.176 228.051,46.176 228.051,40.376 228.851,40.376 228.851,37.276 228.051,37.276 228.051,36.276" style="fill:none;stroke-width:0.050000mm;stroke:black"/>
<polygon points="195.001,36.276 195.001,37.276 194.201,37.276 194.201,40.376 195.001,40.376 195.001,46.176 194.201,46.176 194.201,49.276 195.001,49.276 195.001,50.276 209.001,50.276 209.001,49.276 209.801,49.276 209.801,46.176 209.001,46.176 209.001,40.376 209.801,40.376 209.801,37.276 209.001,37.276 209.001,36.276" style="fill:none;stroke-width:0.050000mm;stroke:black"/>
<polygon points="175.951,36.276 175.951,37.276 175.151,37.276 175.151,40.376 175.951,40.376 175.951,46.176 175.151,46.176 175.151,49.276 175.951,49.276 175.951,50.276 189.951,50.276 189.951,49.276 190.751,49.276 190.751,46.176 189.951,46.176 189.951,40.376 190.751,40.376 190.751,37.276 189.951,37.276 189.951,36.276" style="fill:none;stroke-width:0.050000mm;stroke:black"/>
<polygon points="156.901,36.276 156.901,37.276 156.101,37.276 156.101,40.376 156.901,40.376 156.901,46.176 156.101,46.176 156.101,49.276 156.901,49.276 156.901,50.276 170.901,50.276 170.901,49.276 171.701,49.276 171.701,46.176 170.901,46.176 170.901,40.376 171.701,40.376 171.701,37.276 170.901,37.276 170.901,36.276" style="fill:none;stroke-width:0.050000mm;stroke:black"/>
<polygon points="137.851,36.276 137.851,37.276 137.050,37.276 137.050,40.376 137.851,40.376 137.851,46.176 137.050,46.176 137.050,49.276 137.851,49.276 137.851,50.276 151.851,50.276 151.851,49.276 152.651,49.276 152.651,46.176 151.851,46.176 151.851,40.376 152.651,40.376 152.651,37.276 151.851,37.276 151.851,36.276" style="fill:none;stroke-width:0.050000mm;stroke:black"/>
<polygon points="118.801,36.276 118.801,37.276 118.001,37.276 118.001,40.376 118.801,40.376 118.801,46.176 118.001,46.176 118.001,49.276 118.801,49.276 118.801,50.276 132.801,50.276 132.801,49.276 133.601,49.276 133.601,46.176 132.801,46.176 132.801,40.376 133.601,40.376 133.601,37.276 132.801,37.276 132.801,36.276" style="fill:none;stroke-width:0.050000mm;stroke:black"/>
<polygon points="99.751,36.276 99.751,37.276 98.951,37.276 98.951,40.376 99.751,40.376 99.751,46.176 98.951,46.176 98.951,49.276 99.751,49.276 99.751,50.276 113.751,50.276 113.751,49.276 114.551,49.276 114.551,46.176 113.751,46.176 113.751,40.376 114.551,40.376 114.551,37.276 113.751,37.276 113.751,36.276" style="fill:none;stroke-width:0.050000mm;stroke:black"/>
<polygon points="80.701,36.276 80.701,37.276 79.901,37.276 79.901,40.376 80.701,40.376 80.701,46.176 79.901,46.176 79.901,49.276 80.701,49.276 80.701,50.276 94.701,50.276 94.701,49.276 95.501,49.276 95.501,46.176 94.701,46.176 94.701,40.376 95.501,40.376 95.501,37.276 94.701,37.276 94.701,36.276" style="fill:none;stroke-width:0.050000mm;stroke:black"/>
<polygon points="61.651,36.276 61.651,37.276 60.851,37.276 60.851,40.376 61.651,40.376 61.651,46.176 60.851,46.176 60.851,49.276 61.651,49.276 61.651,50.276 75.651,50.276 75.651,49.276 76.451,49.276 76.451,46.176 75.651,46.176 75.651,40.376 76.451,40.376 76.451,37.276 75.651,37.276 75.651,36.276" style="fill:none;stroke-width:0.050000mm;stroke:black"/>
<polygon points="42.601,36.276 42.601,37.276 41.801,37.276 41.801,40.376 42.601,40.376 42.601,46.176 41.801,46.176 41.801,49.276 42.601,49.276 42.601,50.276 56.601,50.276 56.601,49.276 57.401,49.276 57.401,46.176 56.601,46.176 56.601,40.376 57.401,40.376 57.401,37.276 56.601,37.276 56.601,36.276" style="fill:none;stroke-width:0.050000mm;stroke:black"/>
<polygon points="18.788,36.276 18.788,37.276 17.988,37.276 17.988,40.376 18.788,40.376 18.788,46.176 17.988,46.176 17.988,49.276 18.788,49.276 18.788,50.276 32.788,50.276 32.788,49.276 33.588,49.276 33.588,46.176 32.788,46.176 32.788,40.376 33.588,40.376 33.588,37.276 32.788,37.276 32.788,36.276" style="fill:none;stroke-width:0.050000mm;stroke:black"/>
<polygon points="280.726,17.226 280.726,18.226 279.926,18.226 279.926,21.326 280.726,21.326 280.726,27.126 279.926,27.126 279.926,30.226 280.726,30.226 280.726,31.226 294.726,31.226 294.726,30.226 295.526,30.226 295.526,27.126 294.726,27.126 294.726,21.326 295.526,21.326 295.526,18.226 294.726,18.226 294.726,17.226" style="fill:none;stroke-width:0.050000mm;stroke:black"/>
<polygon points="261.676,17.226 261.676,18.226 260.876,18.226 260.876,21.326 261.676,21.326 261.676,27.126 260.876,27.126 260.876,30.226 261.676,30.226 261.676,31.226 275.676,31.226 275.676,30.226 276.476,30.226 276.476,27.126 275.676,27.126 275.676,21.326 276.476,21.326 276.476,18.226 275.676,18.226 275.676,17.226" style="fill:none;stroke-width:0.050000mm;stroke:black"/>
<polygon points="242.626,17.226 242.626,18.226 241.826,18.226 241.826,21.326 242.626,21.326 242.626,27.126 241.826,27.126 241.826,30.226 242.626,30.226 242.626,31.226 256.626,31.226 256.626,30.226 257.426,30.226 257.426,27.126 256.626,27.126 256.626,21.326 257.426,21.326 257.426,18.226 256.626,18.226 256.626,17.226" style="fill:none;stroke-width:0.050000mm;stroke:black"/>
<polygon points="223.576,17.226 223.576,18.226 222.776,18.226 222.776,21.326 223.576,21.326 223.576,27.126 222.776,27.126 222.776,30.226 223.576,30.226 223.576,31.226 237.576,31.226 237.576,30.226 238.376,30.226 238.376,27.126 237.576,27.126 237.576,21.326 238.376,21.326 238.376,18.226 237.576,18.226 237.576,17.226" style="fill:none;stroke-width:0.050000mm;stroke:black"/>
<polygon points="204.526,17.226 204.526,18.226 203.726,18.226 203.726,21.326 204.526,21.326 204.526,27.126 203.726,27.126 203.726,30.226 204.526,30.226 204.526,31.226 218.526,31.226 218.526,30.226 219.326,30.226 219.326,27.126 218.526,27.126 218.526,21.326 219.326,21.326 219.326,18.226 218.526,18.226 218.526,17.226" style="fill:none;stroke-width:0.050000mm;stroke:black"/>
<polygon points="185.476,17.226 185.476,18.226 184.676,18.226 184.676,21.326 185.476,21.326 185.476,27.126 184.676,27.126 184.676,30.226 185.476,30.226 185.476,31.226 199.476,31.226 199.476,30.226 200.276,30.226 200.276,27.126 199.476,27.126 199.476,21.326 200.276,21.326 200.276,18.226 199.476,18.226 199.476,17.226" style="fill:none;stroke-width:0.050000mm;stroke:black"/>
<polygon points="166.426,17.226 166.426,18.226 165.626,18.226 165.626,21.326 166.426,21.326 166.426,27.126 165.626,27.126 165.626,30.226 166.426,30.226 166.426,31.226 180.426,31.226 180.426,30.226 181.226,30.226 181.226,27.126 180.426,27.126 180.426,21.326 181.226,21.326 181.226,18.226 180.426,18.226 180.426,17.226" style="fill:none;stroke-width:0.050000mm;stroke:black"/>
<polygon points="147.376,17.226 147.376,18.226 146.576,18.226 146.576,21.326 147.376,21.326 147.376,27.126 146.576,27.126 146.576,30.226 147.376,30.226 147.376,31.226 161.376,31.226 161.376,30.226 162.176,30.226 162.176,27.126 161.376,27.126 161.376,21.326 162.176,21.326 162.176,18.226 161.376,18.226 161.376,17.226" style="fill:none;stroke-width:0.050000mm;stroke:black"/>
<polygon points="128.325,17.226 128.325,18.226 127.525,18.226 127.525,21.326 128.325,21.326 128.325,27.126 127.525,27.126 127.525,30.226 128.325,30.226 128.325,31.226 142.326,31.226 142.326,30.226 143.126,30.226 143.126,27.126 142.326,27.126 142.326,21.326 143.126,21.326 143.126,18.226 142.326,18.226 142.326,17.226" style="fill:none;stroke-width:0.050000mm;stroke:black"/>
<polygon points="109.275,17.226 109.275,18.226 108.476,18.226 108.476,21.326 109.275,21.326 109.275,27.126 108.476,27.126 108.476,30.226 109.275,30.226 109.275,31.226 123.275,31.226 123.275,30.226 124.075,30.226 124.075,27.126 123.275,27.126 123.275,21.326 124.075,21.326 124.075,18.226 123.275,18.226 123.275,17.226" style="fill:none;stroke-width:0.050000mm;stroke:black"/>
<polygon points="90.226,17.226 90.226,18.226 89.426,18.226 89.426,21.326 90.226,21.326 90.226,27.126 89.426,27.126 89.426,30.226 90.226,30.226 90.226,31.226 104.226,31.226 104.226,30.226 105.025,30.226 105.025,27.126 104.226,27.126 104.226,21.326 105.025,21.326 105.025,18.226 104.226,18.226 104.226,17.226" style="fill:none;stroke-width:0.050000mm;stroke:black"/>
<polygon points="71.176,17.226 71.176,18.226 70.376,18.226 70.376,21.326 71.176,21.326 71.176,27.126 70.376,27.126 70.376,30.226 71.176,30.226 71.176,31.226 85.176,31.226 85.176,30.226 85.976,30.226 85.976,27.126 85.176,27.126 85.176,21.326 85.976,21.326 85.976,18.226 85.176,18.226 85.176,17.226" style="fill:none;stroke-width:0.050000mm;stroke:black"/>
<polygon points="52.126,17.226 52.126,18.226 51.326,18.226 51.326,21.326 52.126,21.326 52.126,27.126 51.326,27.126 51.326,30.226 52.126,30.226 52.126,31.226 66.126,31.226 66.126,30.226 66.926,30.226 66.926,27.126 66.126,27.126 66.126,21.326 66.926,21.326 66.926,18.226 66.126,18.226 66.126,17.226" style="fill:none;stroke-width:0.050000mm;stroke:black"/>
<polygon points="33.076,17.226 33.076,18.226 32.276,18.226 32.276,21.326 33.076,21.326 33.076,27.126 32.276,27.126 32.276,30.226 33.076,30.226 33.076,31.226 47.076,31.226 47.076,30.226 47.876,30.226 47.876,27.126 47.076,27.126 47.076,21.326 47.876,21.326 47.876,18.226 47.076,18.226 47.076,17.226" style="fill:none;stroke-width:0.050000mm;stroke:black"/>
<polygon points="14.025,17.226 14.025,18.226 13.225,18.226 13.225,21.326 14.025,21.326 14.025,27.126 13.225,27.126 13.225,30.226 14.025,30.226 14.025,31.226 28.026,31.226 28.026,30.226 28.826,30.226 28.826,27.126 28.026,27.126 28.026,21.326 28.826,21.326 28.826,18.226 28.026,18.226 28.026,17.226" style="fill:none;stroke-width:0.050000mm;stroke:black"/>
</svg>